<svg xmlns="http://www.w3.org/2000/svg" version="1.1" xmlns:xlink="http://www.w3.org/1999/xlink" xmlns:svgjs="http://svgjs.com/svgjs" width="1440" height="560" preserveAspectRatio="none" viewBox="0 0 1440 560">
    <g mask="url(&quot;#SvgjsMask1016&quot;)" fill="none">
        <rect width="1440" height="560" x="0" y="0" fill="#0e2a47"></rect>
        <path d="M214.634,199.985C245.002,200.252,263.087,169.387,277.299,142.549C290.322,117.955,298.294,90.13,286.035,65.147C272.289,37.133,245.833,14.249,214.634,14.839C184.171,15.415,160.947,40.294,147.762,67.761C136.328,91.58,141.925,117.887,153.849,141.464C167.454,168.364,184.49,199.72,214.634,199.985" fill="rgba(28, 83, 142, 0.4)" class="triangle-float3"></path>
        <path d="M204.9,625.266C249.386,627.443,297.575,616.969,320.6,578.843C344.215,539.74,334.606,489.842,309.88,451.433C287.197,416.198,246.781,400.542,204.9,399.117C159.799,397.582,109.314,404.748,86.771,443.841C64.241,482.911,82.67,530.61,107.279,568.405C129.302,602.229,164.586,623.293,204.9,625.266" fill="rgba(28, 83, 142, 0.4)" class="triangle-float3"></path>
        <path d="M797.974,179.974C817.553,180.384,836.008,171.042,846.516,154.517C857.881,136.645,861.54,114.225,851.714,95.464C841.206,75.4,820.606,60.946,797.974,61.836C776.522,62.679,760.648,80.199,751.084,99.42C742.623,116.424,743.278,136.138,752.833,152.553C762.325,168.86,779.109,179.578,797.974,179.974" fill="rgba(28, 83, 142, 0.4)" class="triangle-float2"></path>
        <path d="M916.905,445.579C940.99,446.618,964.755,435.659,976.999,414.893C989.421,393.825,988.299,367.203,975.352,346.453C963.106,326.826,940.039,318.648,916.905,318.583C893.637,318.518,869.339,325.87,857.885,346.123C846.566,366.138,853.429,390.297,865.164,410.071C876.606,429.352,894.506,444.613,916.905,445.579" fill="rgba(28, 83, 142, 0.4)" class="triangle-float2"></path>
        <path d="M1160.589,520.572C1195.186,520.546,1225.442,497.694,1241.184,466.886C1255.623,438.627,1249.166,405.857,1233.223,378.419C1217.371,351.137,1192.121,329.328,1160.589,328.178C1127.13,326.958,1095.002,343.828,1078.159,372.764C1061.218,401.869,1063.378,437.597,1079.78,467.009C1096.65,497.259,1125.953,520.598,1160.589,520.572" fill="rgba(28, 83, 142, 0.4)" class="triangle-float1"></path>
        <path d="M628.683,752.253C677.094,748.922,719.497,722.417,744.043,680.558C768.907,638.157,775.166,586.134,751.294,543.166C726.776,499.034,679.023,476.745,628.683,472.915C569.156,468.386,501.375,471.614,468.856,521.679C434.333,574.829,446,646.494,482.106,698.582C513.876,744.415,573.048,756.081,628.683,752.253" fill="rgba(28, 83, 142, 0.4)" class="triangle-float2"></path>
        <path d="M440.445,628.626C492.294,628.049,548.484,620.487,575.881,576.464C604.489,530.494,594.008,472.131,567.06,425.168C539.97,377.957,494.87,341.224,440.445,340.431C384.773,339.62,335.52,373.401,307.273,421.382C278.574,470.131,269.099,531.949,299.68,579.54C328.472,624.347,387.188,629.219,440.445,628.626" fill="rgba(28, 83, 142, 0.4)" class="triangle-float2"></path>
        <path d="M850.469,259.297C890.094,258.863,923.795,233.882,944.12,199.865C965.06,164.818,972.601,122.364,954.002,86.021C933.738,46.425,894.874,14.293,850.469,16.872C808.92,19.285,785.223,60.106,765.861,96.947C748.281,130.397,735.731,168.447,753.195,201.957C771.839,237.731,810.13,259.739,850.469,259.297" fill="rgba(28, 83, 142, 0.4)" class="triangle-float1"></path>
        <path d="M1093.771,677.112C1129.524,679.174,1169.483,671.486,1186.985,640.242C1204.243,609.433,1186.64,573.583,1168.853,543.077C1151.25,512.885,1128.705,481.4,1093.771,480.371C1057.557,479.304,1027.033,506.119,1010.618,538.417C995.676,567.816,1000.53,602.185,1017.487,630.469C1033.913,657.867,1061.879,675.273,1093.771,677.112" fill="rgba(28, 83, 142, 0.4)" class="triangle-float3"></path>
    </g>
    <defs>
        <mask id="SvgjsMask1016">
            <rect width="1440" height="560" fill="#ffffff"></rect>
        </mask>
        <style>
            @keyframes float1 {
                0%{transform: translate(0, 0)}
                50%{transform: translate(-10px, 0)}
                100%{transform: translate(0, 0)}
            }

            .triangle-float1 {
                animation: float1 5s infinite;
            }

            @keyframes float2 {
                0%{transform: translate(0, 0)}
                50%{transform: translate(-5px, -5px)}
                100%{transform: translate(0, 0)}
            }

            .triangle-float2 {
                animation: float2 4s infinite;
            }

            @keyframes float3 {
                0%{transform: translate(0, 0)}
                50%{transform: translate(0, -10px)}
                100%{transform: translate(0, 0)}
            }

            .triangle-float3 {
                animation: float3 6s infinite;
            }
        </style>
    </defs>
</svg>